<svg width="100" height="100" viewBox="0 0 100 100" fill="none" xmlns="http://www.w3.org/2000/svg">
<path d="M66 50V63.5858C66 64.4767 67.0771 64.9229 67.7071 64.2929L82 50H66Z" fill="black"/>
<path d="M67.7071 83.7071C67.0771 83.0771 66 83.5233 66 84.4142V98H82L67.7071 83.7071Z" fill="black"/>
<path d="M50 82H37.963C37.0681 82 36.6238 83.0855 37.2619 83.713L48.7451 95.0059C49.5479 95.7954 50 96.8741 50 98V82Z" fill="black"/>
<path d="M35.72 62C36.2723 62 36.72 62.4477 36.72 63V69C36.72 69.5523 36.2723 70 35.72 70H19C18.4477 70 18 69.5523 18 69V63C18 62.4477 18.4477 62 19 62H35.72Z" fill="black"/>
<path d="M19.7889 83.7175C19.1596 83.0851 18.08 83.5307 18.08 84.4228V98H34L19.7889 83.7175Z" fill="black"/>
<path d="M98 58L82.7071 73.2929C82.3166 73.6834 82.3166 74.3166 82.7071 74.7071L98 90V58Z" fill="black"/>
<path d="M98 18H82V34H98V18Z" fill="black"/>
<path d="M50 34V18L35.7071 32.2929C35.0771 32.9229 35.5233 34 36.4142 34H50Z" fill="black"/>
<path d="M16.2929 19.7071C16.9229 19.0771 16.4767 18 15.5858 18H2V34L16.2929 19.7071Z" fill="black"/>
<path d="M50 2V18V34V50H66H82H98V34H82V18H98V3C98 2.44772 97.5523 2 97 2H82H66H50Z" fill="#70877F"/>
<path fill-rule="evenodd" clip-rule="evenodd" d="M18.08 50H2.08V66V82V97C2.08 97.5523 2.52772 98 3.08 98H18.08V84.4228C18.08 83.5307 19.1596 83.0851 19.7889 83.7175L34 98H50C50 96.8741 49.5479 95.7954 48.7451 95.0059L37.2619 83.713C36.6238 83.0855 37.0681 82 37.963 82H50V66V50H34H18.08ZM35.72 70C36.2723 70 36.72 69.5523 36.72 69V63C36.72 62.4477 36.2723 62 35.72 62H19C18.4477 62 18 62.4477 18 63V69C18 69.5523 18.4477 70 19 70H35.72Z" fill="#70877F"/>
<path d="M18 2H3C2.44772 2 2 2.44772 2 3V18H15.5858C16.4767 18 16.9229 19.0771 16.2929 19.7071L2 34L2.08 50H18.08H34H50V34H36.4142C35.5233 34 35.0771 32.9229 35.7071 32.2929L50 18V2H34H18Z" fill="#F3852B"/>
<path d="M50 50V66V82V98H66V84.4142C66 83.5233 67.0771 83.0771 67.7071 83.7071L82 98H97C97.5523 98 98 97.5523 98 97V90L82.7071 74.7071C82.3166 74.3166 82.3166 73.6834 82.7071 73.2929L98 58V50H82L67.7071 64.2929C67.0771 64.9229 66 64.4767 66 63.5858V50H50Z" fill="#F3852B"/>
<path d="M2 18H15.5858C16.4767 18 16.9229 19.0771 16.2929 19.7071L2 34M2 18V3C2 2.44772 2.44772 2 3 2H18H34H50M2 18V34M2 34L2.08 50M2.08 50H18.08H34H50M2.08 50V66V82V97C2.08 97.5523 2.52772 98 3.08 98H18.08M50 2V18M50 2H66H82H97C97.5523 2 98 2.44772 98 3V18M50 18V34M50 18L35.7071 32.2929C35.0771 32.9229 35.5233 34 36.4142 34H50M18.08 98V84.4228C18.08 83.5307 19.1596 83.0851 19.7889 83.7175L34 98M18.08 98H34M66 18H82M82 18H98M82 18V34M98 18V34M34 98H50M50 34V50M66 34H82M82 34H98M98 34V50M50 50V66V82M50 50H66M50 82H37.963C37.0681 82 36.6238 83.0855 37.2619 83.713L48.7451 95.0059C49.5479 95.7954 50 96.8741 50 98V98M50 82V98M50 98H66M66 50V63.5858C66 64.4767 67.0771 64.9229 67.7071 64.2929L82 50M66 50H82M66 98V84.4142C66 83.5233 67.0771 83.0771 67.7071 83.7071L82 98M66 98H82M82 50H98M82 98H97C97.5523 98 98 97.5523 98 97V90M98 50V58M98 90L82.7071 74.7071C82.3166 74.3166 82.3166 73.6834 82.7071 73.2929L98 58M98 90V58M36.72 63V69C36.72 69.5523 36.2723 70 35.72 70H19C18.4477 70 18 69.5523 18 69V63C18 62.4477 18.4477 62 19 62H35.72C36.2723 62 36.72 62.4477 36.72 63Z" stroke="black" stroke-width="4"/>
</svg>
