<svg width="188" height="187" viewBox="0 0 188 187" fill="none" xmlns="http://www.w3.org/2000/svg">
<g filter="url(#filter0_d_82_72)">
<path d="M119 89.5V112.086C119 112.977 120.077 113.423 120.707 112.793L144 89.5H119Z" fill="black"/>
<path d="M120.707 141.207C120.077 140.577 119 141.023 119 141.914V164.5H144L120.707 141.207Z" fill="black"/>
<path d="M94 139.5H73.818C72.9231 139.5 72.4788 140.585 73.1169 141.213L92.5059 160.281C93.4617 161.221 94 162.505 94 163.846V164.5V139.5Z" fill="black"/>
<path d="M72.25 108.25C72.8023 108.25 73.25 108.698 73.25 109.25V119.75C73.25 120.302 72.8023 120.75 72.25 120.75H45C44.4477 120.75 44 120.302 44 119.75V109.25C44 108.698 44.4477 108.25 45 108.25H72.25Z" fill="black"/>
<path d="M45.8339 141.217C45.2046 140.585 44.125 141.031 44.125 141.923V164.5H69L45.8339 141.217Z" fill="black"/>
<path d="M169 102L144.707 126.293C144.317 126.683 144.317 127.317 144.707 127.707L169 152V102Z" fill="black"/>
<path d="M169 39.5H144V64.5H169V39.5Z" fill="black"/>
<path d="M94 64.5V39.5L70.7071 62.7929C70.0771 63.4229 70.5233 64.5 71.4142 64.5H94Z" fill="black"/>
<path d="M42.2929 41.2071C42.9229 40.5771 42.4767 39.5 41.5858 39.5H19V64.5L42.2929 41.2071Z" fill="black"/>
<path d="M94 14.5V39.5V64.5V89.5H119H144H169V64.5H144V39.5H169V15.5C169 14.9477 168.552 14.5 168 14.5H144H119H94Z" fill="#70877F"/>
<path fill-rule="evenodd" clip-rule="evenodd" d="M44.125 89.5H19.125V114.5V139.5V163.5C19.125 164.052 19.5727 164.5 20.125 164.5H44.125V141.923C44.125 141.031 45.2046 140.585 45.8339 141.217L69 164.5H94V163.846C94 162.505 93.4617 161.221 92.5059 160.281L73.1169 141.213C72.4788 140.585 72.9231 139.5 73.818 139.5H94V114.5V89.5H69H44.125ZM72.25 120.75C72.8023 120.75 73.25 120.302 73.25 119.75V109.25C73.25 108.698 72.8023 108.25 72.25 108.25H45C44.4477 108.25 44 108.698 44 109.25V119.75C44 120.302 44.4477 120.75 45 120.75H72.25Z" fill="#70877F"/>
<path d="M44 14.5H20C19.4477 14.5 19 14.9477 19 15.5V39.5H41.5858C42.4767 39.5 42.9229 40.5771 42.2929 41.2071L19 64.5L19.125 89.5H44.125H69H94V64.5H71.4142C70.5233 64.5 70.0771 63.4229 70.7071 62.7929L94 39.5V14.5H69H44Z" fill="#F3852B"/>
<path d="M94 89.5V114.5V139.5V164.5H119V141.914C119 141.023 120.077 140.577 120.707 141.207L144 164.5H168C168.552 164.5 169 164.052 169 163.5V152L144.707 127.707C144.317 127.317 144.317 126.683 144.707 126.293L169 102V89.5H144L120.707 112.793C120.077 113.423 119 112.977 119 112.086V89.5H94Z" fill="#F3852B"/>
<path d="M19 39.5H41.5858C42.4767 39.5 42.9229 40.5771 42.2929 41.2071L19 64.5M19 39.5V15.5C19 14.9477 19.4477 14.5 20 14.5H44H69H94M19 39.5V64.5M19 64.5L19.125 89.5M19.125 89.5H44.125H69H94M19.125 89.5V114.5V139.5V163.5C19.125 164.052 19.5727 164.5 20.125 164.5H44.125M94 14.5V39.5M94 14.5H119H144H168C168.552 14.5 169 14.9477 169 15.5V39.5M94 39.5V64.5M94 39.5L70.7071 62.7929C70.0771 63.4229 70.5233 64.5 71.4142 64.5H94M44.125 164.5V141.923C44.125 141.031 45.2046 140.585 45.8339 141.217L69 164.5M44.125 164.5H69M119 39.5H144M144 39.5H169M144 39.5V64.5M169 39.5V64.5M69 164.5H94M94 64.5V89.5M119 64.5H144M144 64.5H169M169 64.5V89.5M94 89.5V114.5V139.5M94 89.5H119M94 139.5H73.818C72.9231 139.5 72.4788 140.585 73.1169 141.213L92.5059 160.281C93.4617 161.221 94 162.505 94 163.846V164.5M94 139.5V164.5M94 164.5H119M119 89.5V112.086C119 112.977 120.077 113.423 120.707 112.793L144 89.5M119 89.5H144M119 164.5V141.914C119 141.023 120.077 140.577 120.707 141.207L144 164.5M119 164.5H144M144 89.5H169M144 164.5H168C168.552 164.5 169 164.052 169 163.5V152M169 89.5V102M169 152L144.707 127.707C144.317 127.317 144.317 126.683 144.707 126.293L169 102M169 152V102M73.25 109.25V119.75C73.25 120.302 72.8023 120.75 72.25 120.75H45C44.4477 120.75 44 120.302 44 119.75V109.25C44 108.698 44.4477 108.25 45 108.25H72.25C72.8023 108.25 73.25 108.698 73.25 109.25Z" stroke="black" stroke-width="7"/>
</g>
<defs>
<filter id="filter0_d_82_72" x="0.5" y="0" width="187" height="187" filterUnits="userSpaceOnUse" color-interpolation-filters="sRGB">
<feFlood flood-opacity="0" result="BackgroundImageFix"/>
<feColorMatrix in="SourceAlpha" type="matrix" values="0 0 0 0 0 0 0 0 0 0 0 0 0 0 0 0 0 0 127 0" result="hardAlpha"/>
<feOffset dy="4"/>
<feGaussianBlur stdDeviation="7.5"/>
<feComposite in2="hardAlpha" operator="out"/>
<feColorMatrix type="matrix" values="0 0 0 0 0.929412 0 0 0 0 0.94902 0 0 0 0 0.956863 0 0 0 0.25 0"/>
<feBlend mode="normal" in2="BackgroundImageFix" result="effect1_dropShadow_82_72"/>
<feBlend mode="normal" in="SourceGraphic" in2="effect1_dropShadow_82_72" result="shape"/>
</filter>
</defs>
</svg>
