<svg width="572" height="572" viewBox="0 0 572 572" fill="none" xmlns="http://www.w3.org/2000/svg">
<path d="M377.667 286V375.252C377.667 376.143 378.744 376.59 379.374 375.96L469.333 286H377.667Z" fill="black"/>
<path d="M379.374 471.04C378.744 470.41 377.667 470.857 377.667 471.748V561H469.333L379.374 471.04Z" fill="black"/>
<path d="M286 469.333H205.485C204.59 469.333 204.145 470.419 204.784 471.046L284.506 549.447C285.462 550.387 286 551.672 286 553.012V561V469.333Z" fill="black"/>
<path d="M208.917 354.75C209.469 354.75 209.917 355.198 209.917 355.75V399.583C209.917 400.136 209.469 400.583 208.917 400.583H103.667C103.114 400.583 102.667 400.136 102.667 399.583V355.75C102.667 355.198 103.114 354.75 103.667 354.75H208.917Z" fill="black"/>
<path d="M104.834 471.051C104.205 470.418 103.125 470.864 103.125 471.756V561H194.333L104.834 471.051Z" fill="black"/>
<path d="M561 331.833L470.04 422.793C469.65 423.183 469.65 423.817 470.04 424.207L561 515.167V331.833Z" fill="black"/>
<path d="M561 102.667H469.333V194.333H561V102.667Z" fill="black"/>
<path d="M286 194.333V102.667L196.04 192.626C195.41 193.256 195.857 194.333 196.748 194.333H286Z" fill="black"/>
<path d="M100.96 104.374C101.59 103.744 101.143 102.667 100.252 102.667H11V194.333L100.96 104.374Z" fill="black"/>
<path d="M286 11V102.667V194.333V286H377.667H469.333H561V194.333H469.333V102.667H561V12C561 11.4477 560.552 11 560 11H469.333H377.667H286Z" fill="#70877F"/>
<path fill-rule="evenodd" clip-rule="evenodd" d="M103.125 286H11.4583V377.667V469.333V560C11.4583 560.552 11.906 561 12.4583 561H103.125V471.756C103.125 470.864 104.205 470.418 104.834 471.051L194.333 561H286V553.012C286 551.672 285.462 550.387 284.506 549.447L204.784 471.046C204.145 470.419 204.59 469.333 205.485 469.333H286V377.667V286H194.333H103.125ZM208.917 400.583C209.469 400.583 209.917 400.136 209.917 399.583V355.75C209.917 355.198 209.469 354.75 208.917 354.75H103.667C103.114 354.75 102.667 355.198 102.667 355.75V399.583C102.667 400.136 103.114 400.583 103.667 400.583H208.917Z" fill="#70877F"/>
<path d="M102.667 11H12C11.4477 11 11 11.4477 11 12V102.667H100.252C101.143 102.667 101.59 103.744 100.96 104.374L11 194.333L11.4583 286H103.125H194.333H286V194.333H196.748C195.857 194.333 195.41 193.256 196.04 192.626L286 102.667V11H194.333H102.667Z" fill="#F3852B"/>
<path d="M286 286V377.667V469.333V561H377.667V471.748C377.667 470.857 378.744 470.41 379.374 471.04L469.333 561H560C560.552 561 561 560.552 561 560V515.167L470.04 424.207C469.65 423.817 469.65 423.183 470.04 422.793L561 331.833V286H469.333L379.374 375.96C378.744 376.59 377.667 376.143 377.667 375.252V286H286Z" fill="#F3852B"/>
<path d="M11 102.667H100.252C101.143 102.667 101.59 103.744 100.96 104.374L11 194.333M11 102.667V12C11 11.4477 11.4477 11 12 11H102.667H194.333H286M11 102.667V194.333M11 194.333L11.4583 286M11.4583 286H103.125H194.333H286M11.4583 286V377.667V469.333V560C11.4583 560.552 11.906 561 12.4583 561H103.125M286 11V102.667M286 11H377.667H469.333H560C560.552 11 561 11.4477 561 12V102.667M286 102.667V194.333M286 102.667L196.04 192.626C195.41 193.256 195.857 194.333 196.748 194.333H286M103.125 561V471.756C103.125 470.864 104.205 470.418 104.834 471.051L194.333 561M103.125 561H194.333M377.667 102.667H469.333M469.333 102.667H561M469.333 102.667V194.333M561 102.667V194.333M194.333 561H286M286 194.333V286M377.667 194.333H469.333M469.333 194.333H561M561 194.333V286M286 286V377.667V469.333M286 286H377.667M286 469.333H205.485C204.59 469.333 204.145 470.419 204.784 471.046L284.506 549.447C285.462 550.387 286 551.672 286 553.012V561M286 469.333V561M286 561H377.667M377.667 286V375.252C377.667 376.143 378.744 376.59 379.374 375.96L469.333 286M377.667 286H469.333M377.667 561V471.748C377.667 470.857 378.744 470.41 379.374 471.04L469.333 561M377.667 561H469.333M469.333 286H561M469.333 561H560C560.552 561 561 560.552 561 560V515.167M561 286V331.833M561 515.167L470.04 424.207C469.65 423.817 469.65 423.183 470.04 422.793L561 331.833M561 515.167V331.833M209.917 355.75V399.583C209.917 400.136 209.469 400.583 208.917 400.583H103.667C103.114 400.583 102.667 400.136 102.667 399.583V355.75C102.667 355.198 103.114 354.75 103.667 354.75H208.917C209.469 354.75 209.917 355.198 209.917 355.75Z" stroke="black" stroke-width="21"/>
</svg>
